<svg width="900" height="900" viewBox="0 0 900 900" fill="none" xmlns="http://www.w3.org/2000/svg">
<g clip-path="url(#clip0_66_2)">
<mask id="mask0_66_2" style="mask-type:luminance" maskUnits="userSpaceOnUse" x="-56" y="-97" width="1000" height="1000">
<path d="M-56 -97H944V903H-56V-97Z" fill="white"/>
</mask>
<g mask="url(#mask0_66_2)">
<g opacity="0.15">
<path opacity="0.535" d="M280.51 282.211L196.625 233.768V224.538L280.51 272.982V282.212V282.211ZM280.51 282.211L196.625 233.768V224.538L280.51 272.982V282.212V282.211Z" fill="#4661AD"/>
<path d="M774.794 500.892L503.363 344.453V335.224L774.793 491.663V500.893L774.794 500.892ZM774.794 500.892L503.363 344.453V335.224L774.793 491.663V500.893L774.794 500.892ZM439.803 287.843L336.276 228.136V218.906L439.803 278.614V287.844V287.843ZM439.803 287.843L336.276 228.136V218.906L439.803 278.614V287.844V287.843ZM722.185 413.655L382.842 217.735V208.505L722.185 404.425V413.655ZM722.185 413.655L382.842 217.735V208.505L722.185 404.425V413.655ZM682.343 270.327L578.818 210.618V201.389L682.343 261.096V270.327ZM682.343 270.327L578.818 210.618V201.389L682.343 261.096V270.327ZM869.707 359.205L578.817 191.393V182.163L869.707 349.976V359.205ZM869.707 359.205L578.817 191.393V182.163L869.707 349.976V359.205Z" fill="#4661AD"/>
<path d="M484.386 187.77L212.956 31.332V22.102L484.386 178.542V187.77ZM484.386 187.77L212.956 31.332V22.102L484.386 178.542V187.77Z" fill="#4661AD"/>
</g>
<path d="M563.383 588.745L573.409 789.689C573.447 790.452 573.667 791.194 574.051 791.854C574.435 792.514 574.971 793.073 575.615 793.483C578.784 795.504 582.937 793.248 582.969 789.492L584.683 590.012C584.693 588.839 584.272 587.703 583.499 586.821C582.726 585.938 581.656 585.37 580.492 585.225L568.752 583.761C565.802 583.391 563.236 585.775 563.383 588.745ZM563.383 588.745L573.409 789.689C573.447 790.452 573.667 791.194 574.051 791.854C574.435 792.514 574.971 793.073 575.615 793.483C578.784 795.504 582.937 793.248 582.969 789.492L584.683 590.012C584.693 588.839 584.272 587.703 583.499 586.821C582.726 585.938 581.656 585.37 580.492 585.225L568.752 583.761C565.802 583.391 563.236 585.775 563.383 588.745Z" fill="white"/>
<path d="M582.895 585.24L578.625 791.566C578.625 795.676 587.557 794.735 590.881 792.318L591.548 791.831C592.155 791.39 592.655 790.819 593.012 790.159C593.37 789.499 593.575 788.768 593.613 788.019L603.767 588.043C603.827 586.868 603.472 585.709 602.766 584.769C602.059 583.828 601.044 583.165 599.899 582.896L589.077 580.345C585.92 579.601 582.895 581.996 582.895 585.24ZM582.895 585.24L578.625 791.566C578.625 795.676 587.557 794.735 590.881 792.318L591.548 791.831C592.155 791.39 592.655 790.819 593.012 790.159C593.37 789.499 593.575 788.768 593.613 788.019L603.767 588.043C603.827 586.868 603.472 585.709 602.766 584.769C602.059 583.828 601.044 583.165 599.899 582.896L589.077 580.345C585.92 579.601 582.895 581.996 582.895 585.24Z" fill="#CAD5E2"/>
<path d="M686.1 531.182L693.453 533.974V542.794H686.1V531.182ZM686.1 531.182L693.453 533.974V542.794H686.1V531.182Z" fill="#162456"/>
<path d="M472.323 642.986L144.51 452.716L333.796 352.572C340.119 349.227 347.189 347.546 354.341 347.686C361.493 347.827 368.491 349.784 374.678 353.375L689.248 535.959C695.015 539.307 694.849 547.689 688.956 550.808L513.206 643.788C506.883 647.133 499.813 648.815 492.661 648.674C485.51 648.534 478.51 646.577 472.323 642.986ZM472.323 642.986L144.51 452.716L333.796 352.572C340.119 349.227 347.189 347.546 354.341 347.686C361.493 347.827 368.491 349.784 374.678 353.375L689.248 535.959C695.015 539.307 694.849 547.689 688.956 550.808L513.206 643.788C506.883 647.133 499.813 648.815 492.661 648.674C485.51 648.534 478.51 646.577 472.323 642.986Z" fill="#162456"/>
<path d="M472.303 633.13L144.49 442.86L333.776 342.717C340.099 339.372 347.169 337.691 354.321 337.831C361.473 337.972 368.471 339.929 374.658 343.52L689.228 526.102C694.995 529.45 694.831 537.832 688.936 540.951L513.186 633.934C506.863 637.279 499.793 638.96 492.641 638.82C485.489 638.679 478.491 636.722 472.304 633.131L472.303 633.13ZM472.303 633.13L144.49 442.86L333.776 342.717C340.099 339.372 347.169 337.691 354.321 337.831C361.473 337.972 368.471 339.929 374.658 343.52L689.228 526.102C694.995 529.45 694.831 537.832 688.936 540.951L513.186 633.934C506.863 637.279 499.793 638.96 492.641 638.82C485.489 638.679 478.491 636.722 472.304 633.131L472.303 633.13Z" fill="#CAD5E2"/>
<path d="M470.818 507.71L470.805 511.926L414.635 544.568L414.649 540.351L470.819 507.709L470.818 507.71ZM470.818 507.71L470.805 511.926L414.635 544.568L414.649 540.351L470.819 507.709L470.818 507.71Z" fill="#D7ECFA"/>
<path d="M414.649 540.351L414.635 544.568L290.31 472.79L290.324 468.573L414.649 540.351ZM414.649 540.351L414.635 544.568L290.31 472.79L290.324 468.573L414.649 540.351Z" fill="#D7ECFA"/>
<path d="M470.818 507.71L414.648 540.351L290.324 468.573L346.494 435.931L470.818 507.709V507.71ZM470.818 507.71L414.648 540.351L290.324 468.573L346.494 435.931L470.818 507.709V507.71Z" fill="#EEF8FC"/>
<path d="M354.086 444.146L354.08 446.617L346.308 451.135L346.316 448.662L354.086 444.146ZM354.086 444.146L354.08 446.617L346.308 451.135L346.316 448.662L354.086 444.146ZM346.316 448.662L346.308 451.135L338.641 446.707L338.647 444.236L346.316 448.662ZM346.316 448.662L346.308 451.135L338.641 446.707L338.647 444.236L346.316 448.662Z" fill="#D7ECFA"/>
<path d="M354.086 444.146L346.316 448.662L338.647 444.236L346.417 439.72L354.087 444.146H354.086ZM354.086 444.146L346.316 448.662L338.647 444.236L346.417 439.72L354.087 444.146H354.086Z" fill="white"/>
<path d="M363.923 449.826L363.915 452.296L356.143 456.813L356.151 454.342L363.923 449.826ZM363.923 449.826L363.915 452.296L356.143 456.813L356.151 454.342L363.923 449.826ZM356.151 454.342L356.143 456.813L348.476 452.387L348.484 449.915L356.151 454.342ZM356.151 454.342L356.143 456.813L348.476 452.387L348.484 449.915L356.151 454.342Z" fill="#D7ECFA"/>
<path d="M363.923 449.826L356.151 454.342L348.484 449.915L356.254 445.397L363.924 449.826H363.923ZM363.923 449.826L356.151 454.342L348.484 449.915L356.254 445.397L363.924 449.826H363.923Z" fill="white"/>
<path d="M373.738 455.493L373.732 457.965L365.96 462.481L365.968 460.009L373.738 455.493ZM373.738 455.493L373.732 457.965L365.96 462.481L365.968 460.009L373.738 455.493Z" fill="#D7ECFA"/>
<path d="M365.968 460.01L365.96 462.48L358.293 458.054L358.299 455.584L365.968 460.009V460.01ZM365.968 460.01L365.96 462.48L358.293 458.054L358.299 455.584L365.968 460.009V460.01Z" fill="#D7ECFA"/>
<path d="M373.738 455.493L365.968 460.009L358.299 455.583L366.072 451.065L373.738 455.493ZM373.738 455.493L365.968 460.009L358.299 455.583L366.072 451.065L373.738 455.493Z" fill="white"/>
<path d="M383.555 461.16L383.549 463.632L375.777 468.148L375.783 465.678L383.555 461.16ZM383.555 461.16L383.549 463.632L375.777 468.148L375.783 465.678L383.555 461.16Z" fill="#D7ECFA"/>
<path d="M375.783 465.677L375.777 468.148L368.11 463.722L368.116 461.249L375.783 465.677ZM375.783 465.677L375.777 468.148L368.11 463.722L368.116 461.249L375.783 465.677Z" fill="#D7ECFA"/>
<path d="M383.555 461.16L375.783 465.677L368.116 461.249L375.889 456.733L383.555 461.16ZM383.555 461.16L375.783 465.677L368.116 461.249L375.889 456.733L383.555 461.16Z" fill="white"/>
<path d="M393.39 466.84L393.384 469.31L385.614 473.828L385.62 471.355L393.39 466.839V466.84ZM393.39 466.84L393.384 469.31L385.614 473.828L385.62 471.355L393.39 466.839V466.84ZM385.62 471.355L385.614 473.828L377.945 469.4L377.953 466.929L385.62 471.355ZM385.62 471.355L385.614 473.828L377.945 469.4L377.953 466.929L385.62 471.355Z" fill="#D7ECFA"/>
<path d="M393.39 466.84L385.62 471.355L377.953 466.929L385.723 462.413L393.39 466.839V466.84ZM393.39 466.84L385.62 471.355L377.953 466.929L385.723 462.413L393.39 466.839V466.84Z" fill="white"/>
<path d="M403.21 472.507L403.201 474.978L395.429 479.494L395.437 477.023L403.21 472.507ZM403.21 472.507L403.201 474.978L395.429 479.494L395.437 477.023L403.21 472.507Z" fill="#D7ECFA"/>
<path d="M395.437 477.023L395.429 479.494L387.762 475.068L387.77 472.597L395.437 477.023ZM395.437 477.023L395.429 479.494L387.762 475.068L387.77 472.597L395.437 477.023Z" fill="#D7ECFA"/>
<path d="M403.21 472.507L395.437 477.023L387.77 472.597L395.54 468.079L403.21 472.507ZM403.21 472.507L395.437 477.023L387.77 472.597L395.54 468.079L403.21 472.507Z" fill="white"/>
<path d="M413.024 478.175L413.018 480.645L405.246 485.164L405.254 482.691L413.024 478.175ZM413.024 478.175L413.018 480.645L405.246 485.164L405.254 482.691L413.024 478.175Z" fill="#D7ECFA"/>
<path d="M405.254 482.69L405.246 485.164L397.579 480.736L397.585 478.264L405.255 482.691L405.254 482.69ZM405.254 482.69L405.246 485.164L397.579 480.736L397.585 478.264L405.255 482.691L405.254 482.69Z" fill="#D7ECFA"/>
<path d="M413.024 478.175L405.254 482.691L397.585 478.264L405.358 473.748L413.024 478.175ZM413.024 478.175L405.254 482.691L397.585 478.264L405.358 473.748L413.024 478.175Z" fill="white"/>
<path d="M422.861 483.852L422.853 486.326L415.083 490.842L415.089 488.368L422.861 483.852ZM422.861 483.852L422.853 486.326L415.083 490.842L415.089 488.368L422.861 483.852Z" fill="#D7ECFA"/>
<path d="M415.089 488.368L415.083 490.842L407.396 486.403L407.402 483.933L415.089 488.368ZM415.089 488.368L415.083 490.842L407.396 486.403L407.402 483.933L415.089 488.368Z" fill="#D7ECFA"/>
<path d="M422.861 483.852L415.089 488.368L407.402 483.932L415.175 479.414L422.861 483.852ZM422.861 483.852L415.089 488.368L407.402 483.932L415.175 479.414L422.861 483.852Z" fill="white"/>
<path d="M432.678 489.52L432.67 491.993L424.898 496.509L424.906 494.036L432.678 489.52ZM432.678 489.52L432.67 491.993L424.898 496.509L424.906 494.036L432.678 489.52Z" fill="#D7ECFA"/>
<path d="M424.906 494.036L424.898 496.509L417.231 492.083L417.239 489.61L424.906 494.036ZM424.906 494.036L424.898 496.509L417.231 492.083L417.239 489.61L424.906 494.036Z" fill="#D7ECFA"/>
<path d="M432.678 489.52L424.906 494.036L417.239 489.61L425.009 485.094L432.678 489.52ZM432.678 489.52L424.906 494.036L417.239 489.61L425.009 485.094L432.678 489.52Z" fill="white"/>
<path d="M442.493 495.188L442.487 497.661L434.715 502.177L434.723 499.704L442.493 495.188ZM442.493 495.188L442.487 497.661L434.715 502.177L434.723 499.704L442.493 495.188Z" fill="#D7ECFA"/>
<path d="M434.723 499.704L434.715 502.177L427.048 497.749L427.054 495.278L434.724 499.704H434.723ZM434.723 499.704L434.715 502.177L427.048 497.749L427.054 495.278L434.724 499.704H434.723Z" fill="#D7ECFA"/>
<path d="M442.493 495.188L434.723 499.704L427.054 495.278L434.827 490.762L442.493 495.188ZM442.493 495.188L434.723 499.704L427.054 495.278L434.827 490.762L442.493 495.188Z" fill="white"/>
<path d="M462.147 506.536L462.139 509.006L454.367 513.523L454.375 511.052L462.147 506.536ZM462.147 506.536L462.139 509.006L454.367 513.523L454.375 511.052L462.147 506.536Z" fill="#D7ECFA"/>
<path d="M454.375 511.052L454.367 513.522L436.865 503.419L436.871 500.946L454.375 511.052ZM454.375 511.052L454.367 513.522L436.865 503.419L436.871 500.946L454.375 511.052Z" fill="#D7ECFA"/>
<path d="M462.147 506.536L454.375 511.052L436.871 500.946L444.644 496.43L462.147 506.536ZM462.147 506.536L454.375 511.052L436.871 500.946L444.644 496.43L462.147 506.536Z" fill="white"/>
<path d="M354.017 455.583L354.009 458.054L346.239 462.57L346.244 460.1L354.017 455.583ZM354.017 455.583L354.009 458.054L346.239 462.57L346.244 460.1L354.017 455.583Z" fill="#D7ECFA"/>
<path d="M346.244 460.1L346.238 462.57L328.735 452.464L328.741 449.994L346.244 460.1ZM346.244 460.1L346.238 462.57L328.735 452.464L328.741 449.994L346.244 460.1Z" fill="#D7ECFA"/>
<path d="M354.017 455.583L346.244 460.099L328.741 449.993L336.513 445.477L354.017 455.583ZM354.017 455.583L346.244 460.099L328.741 449.993L336.513 445.477L354.017 455.583Z" fill="white"/>
<path d="M363.832 461.249L363.826 463.722L356.053 468.238L356.061 465.767L363.831 461.249H363.832ZM363.832 461.249L363.826 463.722L356.053 468.238L356.061 465.767L363.831 461.249H363.832Z" fill="#D7ECFA"/>
<path d="M356.061 465.767L356.053 468.238L348.387 463.812L348.395 461.339L356.061 465.767ZM356.061 465.767L356.053 468.238L348.387 463.812L348.395 461.339L356.061 465.767Z" fill="#D7ECFA"/>
<path d="M363.832 461.249L356.062 465.767L348.395 461.339L356.165 456.823L363.832 461.249ZM363.832 461.249L356.062 465.767L348.395 461.339L356.165 456.823L363.832 461.249Z" fill="white"/>
<path d="M373.649 466.917L373.643 469.39L365.87 473.906L365.878 471.433L373.649 466.917ZM373.649 466.917L373.643 469.39L365.87 473.906L365.878 471.433L373.649 466.917ZM365.878 471.433L365.87 473.906L358.204 469.48L358.21 467.006L365.878 471.433ZM365.878 471.433L365.87 473.906L358.204 469.48L358.21 467.006L365.878 471.433Z" fill="#D7ECFA"/>
<path d="M373.649 466.917L365.879 471.433L358.209 467.006L365.982 462.491L373.649 466.917ZM373.649 466.917L365.879 471.433L358.209 467.006L365.982 462.491L373.649 466.917Z" fill="white"/>
<path d="M383.486 472.597L383.478 475.067L375.708 479.586L375.713 477.112L383.486 472.597ZM383.486 472.597L383.478 475.067L375.708 479.586L375.713 477.112L383.486 472.597ZM375.713 477.112L375.707 479.586L368.039 475.157L368.047 472.687L375.713 477.112ZM375.713 477.112L375.707 479.586L368.039 475.157L368.047 472.687L375.713 477.112Z" fill="#D7ECFA"/>
<path d="M383.486 472.597L375.713 477.112L368.047 472.686L375.817 468.168L383.486 472.597ZM383.486 472.597L375.713 477.112L368.047 472.686L375.817 468.168L383.486 472.597Z" fill="white"/>
<path d="M393.3 478.264L393.295 480.736L385.522 485.251L385.53 482.781L393.3 478.264ZM393.3 478.264L393.295 480.736L385.522 485.251L385.53 482.781L393.3 478.264ZM385.53 482.781L385.522 485.251L377.856 480.825L377.862 478.355L385.53 482.781ZM385.53 482.781L385.522 485.251L377.856 480.825L377.862 478.355L385.53 482.781Z" fill="#D7ECFA"/>
<path d="M393.3 478.264L385.53 482.78L377.862 478.354L385.634 473.838L393.301 478.264H393.3ZM393.3 478.264L385.53 482.78L377.862 478.354L385.634 473.838L393.301 478.264H393.3Z" fill="white"/>
<path d="M403.118 483.932L403.112 486.403L395.339 490.919L395.347 488.449L403.117 483.932H403.118ZM403.118 483.932L403.112 486.403L395.339 490.919L395.347 488.449L403.117 483.932H403.118ZM395.347 488.449L395.339 490.919L387.673 486.493L387.679 484.022L395.347 488.449ZM395.347 488.449L395.339 490.919L387.673 486.493L387.679 484.022L395.347 488.449Z" fill="#D7ECFA"/>
<path d="M403.118 483.932L395.348 488.448L387.678 484.022L395.451 479.504L403.118 483.932ZM403.118 483.932L395.348 488.448L387.678 484.022L395.451 479.504L403.118 483.932Z" fill="white"/>
<path d="M412.955 489.61L412.947 492.083L405.177 496.599L405.182 494.126L412.955 489.61ZM412.955 489.61L412.947 492.083L405.177 496.599L405.182 494.126L412.955 489.61ZM405.182 494.126L405.176 496.599L397.49 492.161L397.496 489.688L405.182 494.126ZM405.182 494.126L405.176 496.599L397.49 492.161L397.496 489.688L405.182 494.126Z" fill="#D7ECFA"/>
<path d="M412.955 489.61L405.182 494.126L397.496 489.688L405.268 485.172L412.955 489.61ZM412.955 489.61L405.182 494.126L397.496 489.688L405.268 485.172L412.955 489.61Z" fill="white"/>
<path d="M422.772 495.278L422.764 497.749L414.991 502.267L414.999 499.794L422.772 495.278ZM422.772 495.278L422.764 497.749L414.991 502.267L414.999 499.794L422.772 495.278Z" fill="#D7ECFA"/>
<path d="M415 499.794L414.991 502.267L407.325 497.839L407.333 495.367L414.999 499.794H415ZM415 499.794L414.991 502.267L407.325 497.839L407.333 495.367L414.999 499.794H415Z" fill="#D7ECFA"/>
<path d="M422.772 495.278L414.999 499.794L407.333 495.367L415.103 490.852L422.772 495.278ZM422.772 495.278L414.999 499.794L407.333 495.367L415.103 490.852L422.772 495.278Z" fill="white"/>
<path d="M432.587 500.946L432.581 503.419L424.808 507.935L424.816 505.461L432.586 500.946H432.587ZM432.587 500.946L432.581 503.419L424.808 507.935L424.816 505.461L432.586 500.946H432.587Z" fill="#D7ECFA"/>
<path d="M424.816 505.461L424.808 507.935L417.142 503.506L417.148 501.036L424.816 505.461ZM424.816 505.461L424.808 507.935L417.142 503.506L417.148 501.036L424.816 505.461Z" fill="#D7ECFA"/>
<path d="M432.587 500.946L424.817 505.461L417.147 501.035L424.92 496.519L432.587 500.946ZM432.587 500.946L424.817 505.461L417.147 501.035L424.92 496.519L432.587 500.946Z" fill="white"/>
<path d="M442.424 506.623L442.416 509.097L434.646 513.612L434.651 511.142L442.424 506.623ZM442.424 506.623L442.416 509.097L434.646 513.612L434.651 511.142L442.424 506.623ZM434.651 511.141L434.645 513.612L426.959 509.174L426.965 506.704L434.651 511.141ZM434.651 511.141L434.645 513.612L426.959 509.174L426.965 506.704L434.651 511.141Z" fill="#D7ECFA"/>
<path d="M442.424 506.623L434.651 511.141L426.965 506.703L434.737 502.187L442.424 506.623ZM442.424 506.623L434.651 511.141L426.965 506.703L434.737 502.187L442.424 506.623Z" fill="white"/>
<path d="M452.24 512.291L452.233 514.764L444.463 519.28L444.468 516.81L452.241 512.291H452.24ZM452.24 512.291L452.233 514.764L444.463 519.28L444.468 516.81L452.241 512.291H452.24ZM444.468 516.81L444.462 519.28L436.794 514.854L436.802 512.381L444.468 516.81ZM444.468 516.81L444.462 519.28L436.794 514.854L436.802 512.381L444.468 516.81Z" fill="#D7ECFA"/>
<path d="M452.24 512.291L444.468 516.809L436.802 512.381L444.572 507.865L452.241 512.291H452.24ZM452.24 512.291L444.468 516.809L436.802 512.381L444.572 507.865L452.241 512.291H452.24Z" fill="white"/>
<path d="M344.108 461.339L344.102 463.812L336.332 468.328L336.338 465.855L344.108 461.339ZM344.108 461.339L344.102 463.812L336.332 468.328L336.338 465.855L344.108 461.339Z" fill="#D7ECFA"/>
<path d="M336.338 465.855L336.332 468.328L318.828 458.222L318.834 455.751L336.338 465.855ZM336.338 465.855L336.332 468.328L318.828 458.222L318.834 455.751L336.338 465.855Z" fill="#D7ECFA"/>
<path d="M344.108 461.339L336.338 465.855L318.834 455.751L326.606 451.233L344.108 461.339ZM344.108 461.339L336.338 465.855L318.834 455.751L326.606 451.233L344.108 461.339Z" fill="white"/>
<path d="M353.925 467.006L353.919 469.48L346.147 473.996L346.155 471.522L353.925 467.006ZM353.925 467.006L353.919 469.48L346.147 473.996L346.155 471.522L353.925 467.006ZM346.155 471.522L346.147 473.996L338.48 469.569L338.486 467.096L346.155 471.522ZM346.155 471.522L346.147 473.996L338.48 469.569L338.486 467.096L346.155 471.522Z" fill="#D7ECFA"/>
<path d="M353.925 467.006L346.155 471.522L338.485 467.096L346.258 462.58L353.925 467.006ZM353.925 467.006L346.155 471.522L338.485 467.096L346.258 462.58L353.925 467.006Z" fill="white"/>
<path d="M363.742 472.674L363.736 475.147L355.964 479.663L355.97 477.19L363.742 472.674ZM363.742 472.674L363.736 475.147L355.964 479.663L355.97 477.19L363.742 472.674Z" fill="#D7ECFA"/>
<path d="M355.97 477.19L355.964 479.663L348.297 475.235L348.303 472.764L355.97 477.19ZM355.97 477.19L355.964 479.663L348.297 475.235L348.303 472.764L355.97 477.19Z" fill="#D7ECFA"/>
<path d="M363.742 472.674L355.97 477.19L348.303 472.764L356.075 468.248L363.742 472.674ZM363.742 472.674L355.97 477.19L348.303 472.764L356.075 468.248L363.742 472.674Z" fill="white"/>
<path d="M373.579 478.354L373.571 480.825L365.801 485.341L365.807 482.87L373.579 478.354ZM373.579 478.354L373.571 480.825L365.801 485.341L365.807 482.87L373.579 478.354Z" fill="#D7ECFA"/>
<path d="M365.807 482.87L365.801 485.341L358.131 480.915L358.14 478.442L365.807 482.87ZM365.807 482.87L365.801 485.341L358.131 480.915L358.14 478.442L365.807 482.87Z" fill="#D7ECFA"/>
<path d="M373.579 478.354L365.807 482.87L358.14 478.442L365.91 473.926L373.579 478.354ZM373.579 478.354L365.807 482.87L358.14 478.442L365.91 473.926L373.579 478.354Z" fill="white"/>
<path d="M383.394 484.022L383.388 486.493L375.616 491.009L375.624 488.538L383.394 484.022ZM383.394 484.022L383.388 486.493L375.616 491.009L375.624 488.538L383.394 484.022Z" fill="#D7ECFA"/>
<path d="M375.624 488.538L375.616 491.009L367.949 486.583L367.957 484.11L375.624 488.538ZM375.624 488.538L375.616 491.009L367.949 486.583L367.957 484.11L375.624 488.538Z" fill="#D7ECFA"/>
<path d="M383.394 484.022L375.624 488.538L367.957 484.11L375.727 479.594L383.394 484.022ZM383.394 484.022L375.624 488.538L367.957 484.11L375.727 479.594L383.394 484.022Z" fill="white"/>
<path d="M393.211 489.688L393.205 492.161L385.433 496.677L385.441 494.206L393.211 489.688ZM393.211 489.688L393.205 492.161L385.433 496.677L385.441 494.206L393.211 489.688ZM385.44 494.206L385.433 496.677L377.766 492.251L377.772 489.777L385.441 494.206H385.44ZM385.44 494.206L385.433 496.677L377.766 492.251L377.772 489.777L385.441 494.206H385.44Z" fill="#D7ECFA"/>
<path d="M393.211 489.688L385.441 494.206L377.772 489.777L385.544 485.261L393.211 489.688ZM393.211 489.688L385.441 494.206L377.772 489.777L385.544 485.261L393.211 489.688Z" fill="white"/>
<path d="M403.048 495.367L403.04 497.839L395.27 502.357L395.276 499.883L403.048 495.367ZM403.048 495.367L403.04 497.839L395.27 502.357L395.276 499.883L403.048 495.367Z" fill="#D7ECFA"/>
<path d="M395.276 499.883L395.27 502.357L387.583 497.918L387.589 495.445L395.276 499.883ZM395.276 499.883L395.27 502.357L387.583 497.918L387.589 495.445L395.276 499.883Z" fill="#D7ECFA"/>
<path d="M403.048 495.367L395.276 499.883L387.589 495.445L395.361 490.929L403.048 495.367ZM403.048 495.367L395.276 499.883L387.589 495.445L395.361 490.929L403.048 495.367Z" fill="white"/>
<path d="M412.865 501.035L412.857 503.508L405.087 508.022L405.093 505.552L412.865 501.035ZM412.865 501.035L412.857 503.508L405.087 508.022L405.093 505.552L412.865 501.035Z" fill="#D7ECFA"/>
<path d="M405.093 505.551L405.087 508.022L397.418 503.596L397.426 501.125L405.093 505.551ZM405.093 505.551L405.087 508.022L397.418 503.596L397.426 501.125L405.093 505.551Z" fill="#D7ECFA"/>
<path d="M412.865 501.035L405.093 505.551L397.426 501.125L405.196 496.609L412.865 501.035ZM412.865 501.035L405.093 505.551L397.426 501.125L405.196 496.609L412.865 501.035Z" fill="white"/>
<path d="M422.68 506.703L422.674 509.174L414.902 513.69L414.91 511.219L422.68 506.703ZM422.68 506.703L422.674 509.174L414.902 513.69L414.91 511.219L422.68 506.703Z" fill="#D7ECFA"/>
<path d="M414.91 511.219L414.902 513.69L407.235 509.264L407.241 506.793L414.91 511.219ZM414.91 511.219L414.902 513.69L407.235 509.264L407.241 506.793L414.91 511.219Z" fill="#D7ECFA"/>
<path d="M422.68 506.703L414.91 511.219L407.241 506.793L415.013 502.275L422.68 506.703ZM422.68 506.703L414.91 511.219L407.241 506.793L415.013 502.275L422.68 506.703Z" fill="white"/>
<path d="M442.334 518.049L442.326 520.522L434.556 525.038L434.562 522.565L442.334 518.049ZM442.334 518.049L442.326 520.522L434.556 525.038L434.562 522.565L442.334 518.049Z" fill="#D7ECFA"/>
<path d="M434.562 522.565L434.556 525.038L417.052 514.932L417.058 512.461L434.562 522.565ZM434.562 522.565L434.556 525.038L417.052 514.932L417.058 512.461L434.562 522.565Z" fill="#D7ECFA"/>
<path d="M442.334 518.049L434.562 522.565L417.058 512.461L424.83 507.943L442.334 518.049ZM442.334 518.049L434.562 522.565L417.058 512.461L424.83 507.943L442.334 518.049Z" fill="white"/>
<path d="M344 472.776L343.992 475.247L336.222 479.763L336.228 477.292L344 472.776ZM344 472.776L343.992 475.247L336.222 479.763L336.228 477.292L344 472.776Z" fill="#D7ECFA"/>
<path d="M336.228 477.292L336.222 479.763L308.902 463.989L308.907 461.518L336.228 477.292ZM336.228 477.292L336.222 479.763L308.902 463.989L308.907 461.518L336.228 477.292Z" fill="#D7ECFA"/>
<path d="M344 472.776L336.228 477.292L308.908 461.518L316.68 457.002L344 472.776ZM344 472.776L336.228 477.292L308.908 461.518L316.68 457.002L344 472.776Z" fill="white"/>
<path d="M353.815 478.442L353.809 480.915L346.037 485.431L346.045 482.96L353.815 478.442ZM353.815 478.442L353.809 480.915L346.037 485.431L346.045 482.96L353.815 478.442Z" fill="#D7ECFA"/>
<path d="M346.045 482.96L346.037 485.43L338.37 481.005L338.378 478.533L346.045 482.96ZM346.045 482.96L346.037 485.43L338.37 481.005L338.378 478.533L346.045 482.96Z" fill="#D7ECFA"/>
<path d="M353.815 478.442L346.045 482.96L338.378 478.533L346.148 474.016L353.815 478.442ZM353.815 478.442L346.045 482.96L338.378 478.533L346.148 474.016L353.815 478.442Z" fill="white"/>
<path d="M363.652 484.122L363.646 486.595L355.874 491.111L355.882 488.637L363.652 484.122ZM363.652 484.122L363.646 486.595L355.874 491.111L355.882 488.637L363.652 484.122Z" fill="#D7ECFA"/>
<path d="M355.882 488.637L355.874 491.111L348.207 486.682L348.213 484.212L355.882 488.637ZM355.882 488.637L355.874 491.111L348.207 486.682L348.213 484.212L355.882 488.637Z" fill="#D7ECFA"/>
<path d="M363.652 484.122L355.882 488.637L348.213 484.211L355.986 479.695L363.652 484.122ZM363.652 484.122L355.882 488.637L348.213 484.211L355.986 479.695L363.652 484.122Z" fill="white"/>
<path d="M373.47 489.79L373.461 492.26L365.691 496.778L365.697 494.305L373.469 489.789L373.47 489.79ZM373.47 489.79L373.461 492.26L365.691 496.778L365.697 494.305L373.469 489.789L373.47 489.79ZM365.697 494.305L365.691 496.778L358.022 492.35L358.03 489.879L365.697 494.305ZM365.697 494.305L365.691 496.778L358.022 492.35L358.03 489.879L365.697 494.305Z" fill="#D7ECFA"/>
<path d="M373.47 489.79L365.697 494.305L358.03 489.879L365.803 485.363L373.469 489.789L373.47 489.79ZM373.47 489.79L365.697 494.305L358.03 489.879L365.803 485.363L373.469 489.789L373.47 489.79Z" fill="white"/>
<path d="M383.286 495.457L383.278 497.928L375.508 502.446L375.514 499.973L383.286 495.457ZM383.286 495.457L383.278 497.928L375.508 502.446L375.514 499.973L383.286 495.457ZM375.514 499.973L375.508 502.446L367.839 498.018L367.847 495.547L375.514 499.973ZM375.514 499.973L375.508 502.446L367.839 498.018L367.847 495.547L375.514 499.973Z" fill="#D7ECFA"/>
<path d="M383.286 495.457L375.514 499.973L367.847 495.547L375.617 491.031L383.286 495.457ZM383.286 495.457L375.514 499.973L367.847 495.547L375.617 491.031L383.286 495.457Z" fill="white"/>
<path d="M393.121 501.137L393.115 503.608L385.343 508.124L385.349 505.653L393.121 501.137ZM393.121 501.137L393.115 503.608L385.343 508.124L385.349 505.653L393.121 501.137Z" fill="#D7ECFA"/>
<path d="M385.349 505.653L385.343 508.124L377.656 503.686L377.664 501.215L385.349 505.653ZM385.349 505.653L385.343 508.124L377.656 503.686L377.664 501.215L385.349 505.653Z" fill="#D7ECFA"/>
<path d="M393.121 501.137L385.349 505.653L377.664 501.215L385.434 496.697L393.121 501.137ZM393.121 501.137L385.349 505.653L377.664 501.215L385.434 496.697L393.121 501.137Z" fill="white"/>
<path d="M402.938 506.803L402.93 509.276L395.16 513.792L395.166 511.321L402.938 506.803ZM402.938 506.803L402.93 509.276L395.16 513.792L395.166 511.321L402.938 506.803Z" fill="#D7ECFA"/>
<path d="M395.166 511.32L395.16 513.792L387.491 509.366L387.499 506.892L395.166 511.32ZM395.166 511.32L395.16 513.792L387.491 509.366L387.499 506.892L395.166 511.32Z" fill="#D7ECFA"/>
<path d="M402.938 506.803L395.166 511.321L387.499 506.892L395.272 502.376L402.938 506.803ZM402.938 506.803L395.166 511.321L387.499 506.892L395.272 502.376L402.938 506.803Z" fill="white"/>
<path d="M412.755 512.47L412.747 514.944L404.977 519.46L404.983 516.986L412.755 512.471V512.47ZM412.755 512.47L412.747 514.944L404.977 519.46L404.983 516.986L412.755 512.471V512.47Z" fill="#D7ECFA"/>
<path d="M404.983 516.986L404.977 519.46L397.308 515.031L397.316 512.561L404.983 516.986ZM404.983 516.986L404.977 519.46L397.308 515.031L397.316 512.561L404.983 516.986Z" fill="#D7ECFA"/>
<path d="M412.755 512.47L404.983 516.986L397.316 512.56L405.086 508.044L412.756 512.471L412.755 512.47ZM412.755 512.47L404.983 516.986L397.316 512.56L405.086 508.044L412.756 512.471L412.755 512.47Z" fill="white"/>
<path d="M432.407 523.818L432.401 526.289L424.629 530.805L424.635 528.334L432.407 523.818ZM432.407 523.818L432.401 526.289L424.629 530.805L424.635 528.334L432.407 523.818Z" fill="#D7ECFA"/>
<path d="M424.635 528.334L424.629 530.805L407.125 520.701L407.133 518.228L424.635 528.334ZM424.635 528.334L424.629 530.805L407.125 520.701L407.133 518.228L424.635 528.334Z" fill="#D7ECFA"/>
<path d="M432.407 523.818L424.635 528.334L407.133 518.228L414.903 513.712L432.407 523.818ZM432.407 523.818L424.635 528.334L407.133 518.228L414.903 513.712L432.407 523.818Z" fill="white"/>
<path d="M314.44 467.186L314.434 469.659L306.661 474.175L306.669 471.702L314.439 467.186H314.44ZM314.44 467.186L314.434 469.659L306.661 474.175L306.669 471.702L314.439 467.186H314.44Z" fill="#D7ECFA"/>
<path d="M306.67 471.702L306.661 474.175L298.995 469.747L299.003 467.276L306.669 471.702H306.67ZM306.67 471.702L306.661 474.175L298.995 469.747L299.003 467.276L306.669 471.702H306.67Z" fill="#D7ECFA"/>
<path d="M314.44 467.186L306.67 471.702L299.003 467.276L306.773 462.76L314.44 467.186ZM314.44 467.186L306.67 471.702L299.003 467.276L306.773 462.76L314.44 467.186Z" fill="white"/>
<path d="M324.277 472.864L324.269 475.337L316.499 479.853L316.504 477.382L324.277 472.864ZM324.277 472.864L324.269 475.337L316.499 479.853L316.504 477.382L324.277 472.864ZM316.504 477.382L316.498 479.852L308.83 475.426L308.838 472.953L316.504 477.382ZM316.504 477.382L316.498 479.852L308.83 475.426L308.838 472.953L316.504 477.382Z" fill="#D7ECFA"/>
<path d="M324.277 472.864L316.504 477.382L308.838 472.953L316.61 468.437L324.277 472.864ZM324.277 472.864L316.504 477.382L308.838 472.953L316.61 468.437L324.277 472.864Z" fill="white"/>
<path d="M334.094 478.533L334.086 481.005L326.316 485.521L326.321 483.049L334.094 478.533ZM334.094 478.533L334.086 481.005L326.316 485.521L326.321 483.049L334.094 478.533Z" fill="#D7ECFA"/>
<path d="M326.321 483.05L326.315 485.52L318.647 481.094L318.655 478.621L326.321 483.05ZM326.321 483.05L326.315 485.52L318.647 481.094L318.655 478.621L326.321 483.05Z" fill="#D7ECFA"/>
<path d="M334.094 478.533L326.321 483.049L318.655 478.621L326.425 474.105L334.094 478.533ZM334.094 478.533L326.321 483.049L318.655 478.621L326.425 474.105L334.094 478.533Z" fill="white"/>
<path d="M383.215 506.892L383.209 509.366L375.436 513.881L375.444 511.408L383.214 506.892H383.215ZM383.215 506.892L383.209 509.366L375.436 513.881L375.444 511.408L383.214 506.892H383.215Z" fill="#D7ECFA"/>
<path d="M375.444 511.408L375.436 513.881L328.464 486.762L328.47 484.289L375.444 511.408ZM375.444 511.408L375.436 513.881L328.464 486.762L328.47 484.289L375.444 511.408Z" fill="#D7ECFA"/>
<path d="M383.215 506.892L375.445 511.408L328.47 484.288L336.242 479.773L383.215 506.892ZM383.215 506.892L375.445 511.408L328.47 484.288L336.242 479.773L383.215 506.892Z" fill="white"/>
<path d="M393.032 512.56L393.026 515.031L385.253 519.549L385.259 517.076L393.032 512.56ZM393.032 512.56L393.026 515.031L385.253 519.549L385.259 517.076L393.032 512.56Z" fill="#D7ECFA"/>
<path d="M385.26 517.076L385.253 519.549L377.585 515.123L377.593 512.65L385.259 517.076H385.26ZM385.26 517.076L385.253 519.549L377.585 515.123L377.593 512.65L385.259 517.076H385.26Z" fill="#D7ECFA"/>
<path d="M393.032 512.56L385.259 517.076L377.593 512.65L385.365 508.134L393.032 512.56ZM393.032 512.56L385.259 517.076L377.593 512.65L385.365 508.134L393.032 512.56Z" fill="white"/>
<path d="M402.849 518.228L402.841 520.701L395.071 525.217L395.076 522.744L402.849 518.228ZM402.849 518.228L402.841 520.701L395.071 525.217L395.076 522.744L402.849 518.228Z" fill="#D7ECFA"/>
<path d="M395.076 522.744L395.07 525.217L387.402 520.791L387.41 518.318L395.076 522.744ZM395.076 522.744L395.07 525.217L387.402 520.791L387.41 518.318L395.076 522.744Z" fill="#D7ECFA"/>
<path d="M402.849 518.228L395.076 522.744L387.41 518.318L395.18 513.802L402.849 518.228ZM402.849 518.228L395.076 522.744L387.41 518.318L395.18 513.802L402.849 518.228Z" fill="white"/>
<path d="M422.5 529.576L422.493 532.046L414.723 536.563L414.728 534.091L422.501 529.576H422.5ZM422.5 529.576L422.493 532.046L414.723 536.563L414.728 534.091L422.501 529.576H422.5ZM414.728 534.091L414.722 536.563L397.219 526.457L397.227 523.985L414.728 534.091ZM414.728 534.091L414.722 536.563L397.219 526.457L397.227 523.985L414.728 534.091Z" fill="#D7ECFA"/>
<path d="M422.5 529.576L414.728 534.091L397.227 523.985L404.997 519.47L422.501 529.576H422.5ZM422.5 529.576L414.728 534.091L397.227 523.985L404.997 519.47L422.501 529.576H422.5Z" fill="white"/>
<path d="M537.71 574.402C527.353 580.381 510.565 580.381 500.208 574.402C489.851 568.423 489.851 558.728 500.208 552.749C510.565 546.77 527.353 546.77 537.71 552.749C548.067 558.728 548.067 568.423 537.71 574.402ZM537.71 574.402C527.353 580.381 510.565 580.381 500.208 574.402C489.851 568.423 489.851 558.728 500.208 552.749C510.565 546.77 527.353 546.77 537.71 552.749C548.067 558.728 548.067 568.423 537.71 574.402Z" fill="#314158"/>
<path d="M545.479 563.574H492.44V519.236H545.478L545.479 563.574ZM545.479 563.574H492.44V519.236H545.478L545.479 563.574Z" fill="#314158"/>
<path d="M537.712 530.062C527.355 536.041 510.565 536.041 500.208 530.062C489.851 524.083 489.851 514.388 500.208 508.409C510.565 502.43 527.355 502.43 537.712 508.409C548.069 514.388 548.067 524.083 537.712 530.062ZM537.712 530.062C527.355 536.041 510.565 536.041 500.208 530.062C489.851 524.083 489.851 514.388 500.208 508.409C510.565 502.43 527.355 502.43 537.712 508.409C548.069 514.388 548.067 524.083 537.712 530.062Z" fill="white"/>
<path d="M539.13 522.53C538.093 523.966 536.459 525.32 534.207 526.477C525.957 530.702 512.604 530.702 504.353 526.477C502.101 525.321 500.467 523.966 499.45 522.531C496.72 518.704 498.354 514.241 504.353 511.171C512.603 506.946 525.956 506.946 534.207 511.171C540.205 514.241 541.839 518.704 539.129 522.531L539.13 522.53ZM539.13 522.53C538.093 523.966 536.459 525.32 534.207 526.477C525.957 530.702 512.604 530.702 504.353 526.477C502.101 525.321 500.467 523.966 499.45 522.531C496.72 518.704 498.354 514.241 504.353 511.171C512.603 506.946 525.956 506.946 534.207 511.171C540.205 514.241 541.839 518.704 539.129 522.531L539.13 522.53Z" fill="#EBEBEB"/>
<path d="M539.13 522.53C538.093 523.966 536.459 525.32 534.207 526.477C525.957 530.702 512.604 530.702 504.353 526.477C502.101 525.321 500.467 523.966 499.45 522.531C500.467 521.096 502.101 519.741 504.353 518.585C512.603 514.36 525.956 514.36 534.207 518.585C536.459 519.741 538.093 521.095 539.129 522.531L539.13 522.53ZM539.13 522.53C538.093 523.966 536.459 525.32 534.207 526.477C525.957 530.702 512.604 530.702 504.353 526.477C502.101 525.321 500.467 523.966 499.45 522.531C500.467 521.096 502.101 519.741 504.353 518.585C512.603 514.36 525.956 514.36 534.207 518.585C536.459 519.741 538.093 521.095 539.129 522.531L539.13 522.53Z" fill="#544438"/>
<path d="M320.972 440.613L256.291 403.27L347.767 350.456L412.448 387.799L320.972 440.613ZM320.972 440.613L256.291 403.27L347.767 350.456L412.448 387.799L320.972 440.613Z" fill="white"/>
<path d="M322.272 427.964L263.866 394.244L346.468 346.554L404.873 380.274L322.272 427.964ZM322.272 427.964L263.866 394.244L346.468 346.554L404.873 380.274L322.272 427.964Z" fill="#4661AD"/>
<path d="M458.955 481.21L416.761 456.849C414.045 455.28 414.045 451.362 416.761 449.794L464.804 422.057L518.961 453.323L470.659 481.21C468.88 482.237 466.862 482.778 464.807 482.778C462.753 482.778 460.734 482.237 458.955 481.21ZM458.955 481.21L416.761 456.849C414.045 455.28 414.045 451.362 416.761 449.794L464.804 422.057L518.961 453.323L470.659 481.21C468.88 482.237 466.862 482.778 464.807 482.778C462.753 482.778 460.734 482.237 458.955 481.21Z" fill="#020618"/>
<path d="M390.265 231.868L384.093 236.041L390.094 388.713L585.934 508.489L591.54 504.726C591.969 504.438 592.32 504.049 592.563 503.592C592.806 503.136 592.933 502.628 592.933 502.111V350.605C592.933 349.76 592.711 348.931 592.289 348.199C591.867 347.468 591.259 346.86 590.528 346.438L392.029 231.806C391.759 231.65 391.45 231.572 391.138 231.583C390.826 231.594 390.524 231.693 390.265 231.868ZM390.265 231.868L384.093 236.041L390.094 388.713L585.934 508.489L591.54 504.726C591.969 504.438 592.32 504.049 592.563 503.592C592.806 503.136 592.933 502.628 592.933 502.111V350.605C592.933 349.76 592.711 348.931 592.289 348.199C591.867 347.468 591.259 346.86 590.528 346.438L392.029 231.806C391.759 231.65 391.45 231.572 391.138 231.583C390.826 231.594 390.524 231.693 390.265 231.868Z" fill="#020618"/>
<path d="M583.529 350.256C584.44 350.783 585.197 351.54 585.723 352.451C586.249 353.363 586.526 354.397 586.526 355.45V506.918C586.526 508.288 585.046 509.142 583.86 508.458L388.418 395.608C386.979 394.777 385.785 393.581 384.954 392.142C384.124 390.703 383.687 389.071 383.687 387.409V237.046C383.687 236.825 383.745 236.607 383.855 236.416C383.966 236.224 384.125 236.065 384.317 235.954C384.508 235.843 384.726 235.785 384.947 235.785C385.168 235.785 385.385 235.843 385.577 235.954M583.529 350.256C584.44 350.783 585.197 351.54 585.723 352.451C586.249 353.363 586.526 354.397 586.526 355.45V506.918C586.526 508.288 585.046 509.142 583.86 508.458L388.418 395.608C386.979 394.777 385.785 393.581 384.954 392.142C384.124 390.703 383.687 389.071 383.687 387.409V237.046C383.687 236.825 383.745 236.607 383.855 236.416C383.966 236.224 384.125 236.065 384.317 235.954C384.508 235.843 384.726 235.785 384.947 235.785C385.168 235.785 385.385 235.843 385.577 235.954" fill="#314158"/>
<path d="M383.687 363.944V242.504L586.267 359.505L586.527 481.07L383.687 363.944ZM383.687 363.944V242.504L586.267 359.505L586.527 481.07L383.687 363.944Z" fill="white"/>
<path d="M518.551 426.652L565.39 453.694M405.852 361.585L430.801 375.99" stroke="#314158" stroke-width="4.28302" stroke-dasharray="147.76 10.71"/>
<path d="M405.852 351.62L565.39 443.729" stroke="#314158" stroke-width="4.28302" stroke-dasharray="147.76 10.71"/>
<path d="M405.852 341.656L565.39 433.765" stroke="#314158" stroke-width="4.28302" stroke-dasharray="147.76 10.71"/>
<path d="M405.852 331.691L565.39 423.8" stroke="#314158" stroke-width="4.28302" stroke-dasharray="147.76 10.71"/>
<path d="M405.852 321.726L565.39 413.835" stroke="#314158" stroke-width="4.28302" stroke-dasharray="147.76 10.71"/>
<path d="M405.852 311.762L565.39 403.871" stroke="#314158" stroke-width="4.28302" stroke-dasharray="147.76 10.71"/>
<path d="M405.852 301.798L565.39 393.907" stroke="#314158" stroke-width="4.28302" stroke-dasharray="147.76 10.71"/>
<path d="M444.383 314.079L565.39 383.942" stroke="#314158" stroke-width="4.28302" stroke-dasharray="147.76 10.71"/>
<path d="M405.852 281.869L437.202 299.969" stroke="#314158" stroke-width="4.28302" stroke-dasharray="147.76 10.71"/>
<path d="M405.852 271.904L565.39 364.013" stroke="#314158" stroke-width="4.28302" stroke-dasharray="147.76 10.71"/>
<path d="M610.822 294.208L455.649 205.902V129.158L610.822 217.463V294.208ZM610.822 294.208L455.649 205.902V129.158L610.822 217.463V294.208Z" fill="#314158"/>
<path d="M496.892 172.136V210.386L491.979 207.55V190.316L474.701 180.341V197.574L469.764 194.724V156.474L474.701 159.324V176.212L491.979 186.188V169.301L496.892 172.136ZM496.892 172.136V210.386L491.979 207.55V190.316L474.701 180.341V197.574L469.764 194.724V156.474L474.701 159.324V176.212L491.979 186.188V169.301L496.892 172.136ZM527.666 194.646L517.148 188.572V222.081L512.255 219.257V185.748L501.691 179.65V174.907L527.666 189.905V194.646ZM527.666 194.646L517.148 188.572V222.081L512.255 219.257V185.748L501.691 179.65V174.907L527.666 189.905V194.646ZM567.273 212.772V251.022L562.983 248.544V221.321C562.983 220.913 562.993 220.484 563.016 220.036C563.04 219.587 563.068 219.133 563.098 218.671L552.071 235.666C551.687 236.314 551.095 236.408 550.294 235.946L549.602 235.545C548.802 235.082 548.219 234.311 547.85 233.229L536.614 203.3C536.708 204.349 536.754 205.31 536.754 206.178V233.4L532.439 230.911V192.661L536.084 194.764C536.514 195.013 536.847 195.256 537.087 195.491C537.326 195.726 537.553 196.127 537.768 196.695L548.841 225.997C549.056 226.583 549.255 227.187 549.441 227.808C549.624 228.423 549.801 229.04 549.971 229.658C550.294 228.797 550.672 228.001 551.103 227.274L561.966 210.667C562.167 210.338 562.384 210.195 562.624 210.235C562.863 210.275 563.198 210.418 563.628 210.667L567.273 212.772ZM567.273 212.772V251.022L562.983 248.544V221.321C562.983 220.913 562.993 220.484 563.016 220.036C563.04 219.587 563.068 219.133 563.098 218.671L552.071 235.666C551.687 236.314 551.095 236.408 550.294 235.946L549.602 235.545C548.802 235.082 548.219 234.311 547.85 233.229L536.614 203.3C536.708 204.349 536.754 205.31 536.754 206.178V233.4L532.439 230.911V192.661L536.084 194.764C536.514 195.013 536.847 195.256 537.087 195.491C537.326 195.726 537.553 196.127 537.768 196.695L548.841 225.997C549.056 226.583 549.255 227.187 549.441 227.808C549.624 228.423 549.801 229.04 549.971 229.658C550.294 228.797 550.672 228.001 551.103 227.274L561.966 210.667C562.167 210.338 562.384 210.195 562.624 210.235C562.863 210.275 563.198 210.418 563.628 210.667L567.273 212.772ZM594.424 261.93V266.698L575.464 255.751V217.499L580.376 220.337V253.819L594.424 261.931V261.93ZM594.424 261.93V266.698L575.464 255.751V217.499L580.376 220.337V253.819L594.424 261.931V261.93Z" fill="white"/>
<path d="M336.104 318.815L215.924 251.678V174.932L336.104 242.071V318.815ZM336.104 318.815L215.924 251.678V174.932L336.104 242.071V318.815Z" fill="#020618"/>
<path d="M260.225 248.938C260.502 249.098 260.739 249.358 260.94 249.723L262.88 253.295C261.524 254.361 259.876 254.837 257.931 254.725C255.986 254.614 253.644 253.769 250.906 252.189C248.487 250.788 246.291 249.035 244.389 246.987C242.445 244.905 240.771 242.587 239.407 240.087C238.023 237.551 236.95 234.857 236.212 232.064C235.463 229.271 235.083 226.392 235.08 223.501C235.08 220.625 235.477 218.218 236.268 216.276C237.059 214.337 238.173 212.916 239.602 212.02C241.033 211.123 242.742 210.77 244.734 210.961C246.727 211.153 248.929 211.944 251.344 213.339C253.667 214.674 255.78 216.344 257.618 218.293C259.431 220.215 261.032 222.328 262.393 224.593L260.779 226.299C260.679 226.427 260.536 226.514 260.376 226.544C260.213 226.576 260.004 226.514 259.743 226.364C259.45 226.195 259.105 225.83 258.714 225.266C258.224 224.573 257.709 223.898 257.17 223.242C256.532 222.456 255.743 221.622 254.804 220.742C253.865 219.864 252.698 219.021 251.299 218.214C249.652 217.263 248.144 216.724 246.777 216.601C245.406 216.476 244.227 216.755 243.235 217.434C242.245 218.114 241.474 219.204 240.93 220.711C240.383 222.215 240.11 224.113 240.11 226.404C240.11 228.73 240.393 230.962 240.963 233.103C241.505 235.179 242.295 237.182 243.315 239.069C244.315 240.907 245.493 242.545 246.846 243.984C248.2 245.423 249.66 246.594 251.229 247.501C252.181 248.051 253.04 248.478 253.802 248.785C254.563 249.092 255.26 249.297 255.9 249.398C256.499 249.5 257.109 249.507 257.71 249.418C258.295 249.324 258.862 249.144 259.394 248.884C259.526 248.823 259.671 248.795 259.816 248.805C259.962 248.814 260.102 248.86 260.225 248.938ZM260.225 248.938C260.502 249.098 260.739 249.358 260.94 249.723L262.88 253.295C261.524 254.361 259.876 254.837 257.931 254.725C255.986 254.614 253.644 253.769 250.906 252.189C248.487 250.788 246.291 249.035 244.389 246.987C242.445 244.905 240.771 242.587 239.407 240.087C238.023 237.551 236.95 234.857 236.212 232.064C235.463 229.271 235.083 226.392 235.08 223.501C235.08 220.625 235.477 218.218 236.268 216.276C237.059 214.337 238.173 212.916 239.602 212.02C241.033 211.123 242.742 210.77 244.734 210.961C246.727 211.153 248.929 211.944 251.344 213.339C253.667 214.674 255.78 216.344 257.618 218.293C259.431 220.215 261.032 222.328 262.393 224.593L260.779 226.299C260.679 226.427 260.536 226.514 260.376 226.544C260.213 226.576 260.004 226.514 259.743 226.364C259.45 226.195 259.105 225.83 258.714 225.266C258.224 224.573 257.709 223.898 257.17 223.242C256.532 222.456 255.743 221.622 254.804 220.742C253.865 219.864 252.698 219.021 251.299 218.214C249.652 217.263 248.144 216.724 246.777 216.601C245.406 216.476 244.227 216.755 243.235 217.434C242.245 218.114 241.474 219.204 240.93 220.711C240.383 222.215 240.11 224.113 240.11 226.404C240.11 228.73 240.393 230.962 240.963 233.103C241.505 235.179 242.295 237.182 243.315 239.069C244.315 240.907 245.493 242.545 246.846 243.984C248.2 245.423 249.66 246.594 251.229 247.501C252.181 248.051 253.04 248.478 253.802 248.785C254.563 249.092 255.26 249.297 255.9 249.398C256.499 249.5 257.109 249.507 257.71 249.418C258.295 249.324 258.862 249.144 259.394 248.884C259.526 248.823 259.671 248.795 259.816 248.805C259.962 248.814 260.102 248.86 260.225 248.938ZM284.977 239.416C284.823 239.629 284.662 239.759 284.492 239.803C284.322 239.847 284.108 239.793 283.847 239.641C283.57 239.481 283.255 239.153 282.902 238.657C282.474 238.062 282.032 237.478 281.575 236.905C280.986 236.17 280.35 235.474 279.672 234.82C278.934 234.101 278.047 233.443 277.017 232.85C276.048 232.291 275.199 231.945 274.47 231.817C273.739 231.687 273.127 231.735 272.635 231.957C272.142 232.177 271.77 232.558 271.517 233.097C271.261 233.633 271.136 234.302 271.136 235.101C271.136 236.131 271.363 237.114 271.816 238.051C272.27 238.988 272.868 239.911 273.606 240.815C274.386 241.767 275.225 242.67 276.118 243.517C277.057 244.414 278.018 245.337 279.002 246.287C279.997 247.249 280.959 248.244 281.886 249.271C282.82 250.305 283.662 251.419 284.401 252.601C285.144 253.794 285.744 255.07 286.188 256.404C286.643 257.757 286.868 259.225 286.868 260.806C286.868 262.494 286.617 263.926 286.118 265.113C285.618 266.298 284.891 267.167 283.938 267.717C282.986 268.269 281.814 268.457 280.421 268.283C279.028 268.11 277.449 267.512 275.681 266.492C274.594 265.861 273.56 265.144 272.589 264.347C271.589 263.53 270.644 262.647 269.753 261.697C268.858 260.744 268.022 259.737 267.25 258.681C266.484 257.637 265.786 256.545 265.161 255.411L266.568 253.506C266.704 253.374 266.877 253.289 267.064 253.261C267.256 253.229 267.475 253.283 267.722 253.426C268.045 253.611 268.418 254.024 268.84 254.658C269.343 255.405 269.866 256.138 270.41 256.856C271.032 257.685 271.778 258.546 272.647 259.439C273.515 260.332 274.574 261.137 275.819 261.856C276.834 262.442 277.742 262.811 278.542 262.962C279.341 263.114 280.014 263.058 280.56 262.797C281.104 262.534 281.525 262.079 281.816 261.432C282.109 260.784 282.254 259.961 282.254 258.966C282.262 257.887 282.035 256.82 281.587 255.838C281.115 254.83 280.517 253.886 279.809 253.028C279.032 252.081 278.192 251.186 277.296 250.351C276.331 249.448 275.369 248.542 274.41 247.633C273.416 246.69 272.455 245.713 271.529 244.703C270.586 243.676 269.743 242.561 269.013 241.373C268.261 240.142 267.665 238.823 267.238 237.445C266.791 236.025 266.568 234.462 266.568 232.758C266.568 231.391 266.799 230.198 267.26 229.186C267.722 228.174 268.394 227.431 269.279 226.956C270.161 226.482 271.249 226.319 272.543 226.47C273.834 226.622 275.313 227.178 276.973 228.136C278.856 229.228 280.582 230.569 282.105 232.124C283.671 233.718 285.038 235.496 286.176 237.419L284.977 239.416ZM284.977 239.416C284.823 239.629 284.662 239.759 284.492 239.803C284.322 239.847 284.108 239.793 283.847 239.641C283.57 239.481 283.255 239.153 282.902 238.657C282.474 238.062 282.032 237.478 281.575 236.905C280.986 236.17 280.35 235.474 279.672 234.82C278.934 234.101 278.047 233.443 277.017 232.85C276.048 232.291 275.199 231.945 274.47 231.817C273.739 231.687 273.127 231.735 272.635 231.957C272.142 232.177 271.77 232.558 271.517 233.097C271.261 233.633 271.136 234.302 271.136 235.101C271.136 236.131 271.363 237.114 271.816 238.051C272.27 238.988 272.868 239.911 273.606 240.815C274.386 241.767 275.225 242.67 276.118 243.517C277.057 244.414 278.018 245.337 279.002 246.287C279.997 247.249 280.959 248.244 281.886 249.271C282.82 250.305 283.662 251.419 284.401 252.601C285.144 253.794 285.744 255.07 286.188 256.404C286.643 257.757 286.868 259.225 286.868 260.806C286.868 262.494 286.617 263.926 286.118 265.113C285.618 266.298 284.891 267.167 283.938 267.717C282.986 268.269 281.814 268.457 280.421 268.283C279.028 268.11 277.449 267.512 275.681 266.492C274.594 265.861 273.56 265.144 272.589 264.347C271.589 263.53 270.644 262.647 269.753 261.697C268.858 260.744 268.022 259.737 267.25 258.681C266.484 257.637 265.786 256.545 265.161 255.411L266.568 253.506C266.704 253.374 266.877 253.289 267.064 253.261C267.256 253.229 267.475 253.283 267.722 253.426C268.045 253.611 268.418 254.024 268.84 254.658C269.343 255.405 269.866 256.138 270.41 256.856C271.032 257.685 271.778 258.546 272.647 259.439C273.515 260.332 274.574 261.137 275.819 261.856C276.834 262.442 277.742 262.811 278.542 262.962C279.341 263.114 280.014 263.058 280.56 262.797C281.104 262.534 281.525 262.079 281.816 261.432C282.109 260.784 282.254 259.961 282.254 258.966C282.262 257.887 282.035 256.82 281.587 255.838C281.115 254.83 280.517 253.886 279.809 253.028C279.032 252.081 278.192 251.186 277.296 250.351C276.331 249.448 275.369 248.542 274.41 247.633C273.416 246.69 272.455 245.713 271.529 244.703C270.586 243.676 269.743 242.561 269.013 241.373C268.261 240.142 267.665 238.823 267.238 237.445C266.791 236.025 266.568 234.462 266.568 232.758C266.568 231.391 266.799 230.198 267.26 229.186C267.722 228.174 268.394 227.431 269.279 226.956C270.161 226.482 271.249 226.319 272.543 226.47C273.834 226.622 275.313 227.178 276.973 228.136C278.856 229.228 280.582 230.569 282.105 232.124C283.671 233.718 285.038 235.496 286.176 237.419L284.977 239.416ZM310.075 253.906C309.922 254.12 309.76 254.249 309.591 254.293C309.421 254.337 309.204 254.283 308.943 254.132C308.666 253.972 308.351 253.643 307.999 253.147C307.571 252.552 307.128 251.968 306.671 251.395C306.083 250.661 305.448 249.965 304.771 249.311C304.033 248.591 303.146 247.934 302.116 247.34C301.147 246.782 300.298 246.435 299.569 246.308C298.837 246.178 298.225 246.228 297.733 246.449C297.241 246.67 296.868 247.051 296.615 247.587C296.36 248.125 296.235 248.791 296.235 249.59C296.235 250.62 296.462 251.605 296.915 252.541C297.368 253.478 297.965 254.401 298.702 255.305C299.483 256.258 300.323 257.16 301.217 258.008C302.155 258.905 303.116 259.828 304.1 260.778C305.085 261.728 306.046 262.721 306.984 263.761C307.918 264.795 308.759 265.91 309.497 267.091C310.24 268.284 310.84 269.561 311.285 270.894C311.739 272.247 311.966 273.716 311.966 275.296C311.966 276.982 311.716 278.417 311.217 279.603C310.717 280.789 309.989 281.658 309.037 282.208C308.084 282.76 306.91 282.947 305.517 282.774C304.127 282.6 302.546 282.002 300.778 280.982C299.692 280.351 298.659 279.635 297.688 278.838C296.687 278.021 295.74 277.138 294.849 276.188C293.954 275.235 293.118 274.228 292.346 273.172C291.581 272.128 290.883 271.036 290.258 269.902L291.667 267.996C291.803 267.864 291.976 267.779 292.163 267.751C292.354 267.719 292.573 267.773 292.821 267.917C293.144 268.104 293.516 268.514 293.939 269.148C294.361 269.784 294.883 270.515 295.507 271.346C296.129 272.176 296.877 273.036 297.745 273.929C298.614 274.822 299.672 275.627 300.918 276.346C301.932 276.932 302.839 277.301 303.638 277.453C304.438 277.602 305.111 277.548 305.657 277.287C306.201 277.024 306.621 276.57 306.914 275.922C307.205 275.274 307.353 274.452 307.353 273.457C307.353 272.337 307.13 271.294 306.685 270.327C306.213 269.319 305.616 268.375 304.908 267.516C304.13 266.569 303.29 265.676 302.393 264.841C301.453 263.963 300.493 263.056 299.509 262.123C298.514 261.18 297.552 260.203 296.625 259.193C295.683 258.166 294.841 257.051 294.112 255.863C293.359 254.632 292.762 253.313 292.334 251.935C291.888 250.515 291.667 248.952 291.667 247.248C291.667 245.881 291.898 244.691 292.358 243.678C292.821 242.666 293.492 241.921 294.378 241.447C295.26 240.973 296.348 240.809 297.641 240.961C298.933 241.112 300.41 241.668 302.07 242.627C303.953 243.718 305.68 245.06 307.203 246.614C308.77 248.208 310.137 249.986 311.275 251.91L310.075 253.906ZM310.075 253.906C309.922 254.12 309.76 254.249 309.591 254.293C309.421 254.337 309.204 254.283 308.943 254.132C308.666 253.972 308.351 253.643 307.999 253.147C307.571 252.552 307.128 251.968 306.671 251.395C306.083 250.661 305.448 249.965 304.771 249.311C304.033 248.591 303.146 247.934 302.116 247.34C301.147 246.782 300.298 246.435 299.569 246.308C298.837 246.178 298.225 246.228 297.733 246.449C297.241 246.67 296.868 247.051 296.615 247.587C296.36 248.125 296.235 248.791 296.235 249.59C296.235 250.62 296.462 251.605 296.915 252.541C297.368 253.478 297.965 254.401 298.702 255.305C299.483 256.258 300.323 257.16 301.217 258.008C302.155 258.905 303.116 259.828 304.1 260.778C305.085 261.728 306.046 262.721 306.984 263.761C307.918 264.795 308.759 265.91 309.497 267.091C310.24 268.284 310.84 269.561 311.285 270.894C311.739 272.247 311.966 273.716 311.966 275.296C311.966 276.982 311.716 278.417 311.217 279.603C310.717 280.789 309.989 281.658 309.037 282.208C308.084 282.76 306.91 282.947 305.517 282.774C304.127 282.6 302.546 282.002 300.778 280.982C299.692 280.351 298.659 279.635 297.688 278.838C296.687 278.021 295.74 277.138 294.849 276.188C293.954 275.235 293.118 274.228 292.346 273.172C291.581 272.128 290.883 271.036 290.258 269.902L291.667 267.996C291.803 267.864 291.976 267.779 292.163 267.751C292.354 267.719 292.573 267.773 292.821 267.917C293.144 268.104 293.516 268.514 293.939 269.148C294.361 269.784 294.883 270.515 295.507 271.346C296.129 272.176 296.877 273.036 297.745 273.929C298.614 274.822 299.672 275.627 300.918 276.346C301.932 276.932 302.839 277.301 303.638 277.453C304.438 277.602 305.111 277.548 305.657 277.287C306.201 277.024 306.621 276.57 306.914 275.922C307.205 275.274 307.353 274.452 307.353 273.457C307.353 272.337 307.13 271.294 306.685 270.327C306.213 269.319 305.616 268.375 304.908 267.516C304.13 266.569 303.29 265.676 302.393 264.841C301.453 263.963 300.493 263.056 299.509 262.123C298.514 261.18 297.552 260.203 296.625 259.193C295.683 258.166 294.841 257.051 294.112 255.863C293.359 254.632 292.762 253.313 292.334 251.935C291.888 250.515 291.667 248.952 291.667 247.248C291.667 245.881 291.898 244.691 292.358 243.678C292.821 242.666 293.492 241.921 294.378 241.447C295.26 240.973 296.348 240.809 297.641 240.961C298.933 241.112 300.41 241.668 302.07 242.627C303.953 243.718 305.68 245.06 307.203 246.614C308.77 248.208 310.137 249.986 311.275 251.91L310.075 253.906Z" fill="white"/>
<path d="M838.433 275.705L755.83 229.468V152.722L838.433 198.961V275.705ZM838.433 275.705L755.83 229.468V152.722L838.433 198.961V275.705Z" fill="#020618"/>
<path d="M789.045 215.303C789.045 217.433 788.816 219.219 788.354 220.657C787.894 222.097 787.218 223.151 786.334 223.82C785.45 224.49 784.35 224.76 783.034 224.631C781.721 224.504 780.211 223.948 778.503 222.961C776.964 222.074 775.382 220.911 773.752 219.471L774.029 216.275C774.059 215.972 774.164 215.771 774.339 215.669C774.517 215.568 774.78 215.617 775.135 215.823C775.395 215.973 775.755 216.255 776.207 216.668C776.659 217.08 777.257 217.498 777.995 217.925C778.979 218.493 779.854 218.83 780.615 218.932C781.375 219.033 782.018 218.876 782.54 218.459C783.063 218.041 783.46 217.351 783.728 216.389C783.998 215.424 784.133 214.163 784.133 212.6V187.535L789.045 190.371V215.303ZM789.045 215.303C789.045 217.433 788.816 219.219 788.354 220.657C787.894 222.097 787.218 223.151 786.334 223.82C785.45 224.49 784.35 224.76 783.034 224.631C781.721 224.504 780.211 223.948 778.503 222.961C776.964 222.074 775.382 220.911 773.752 219.471L774.029 216.275C774.059 215.972 774.164 215.771 774.339 215.669C774.517 215.568 774.78 215.617 775.135 215.823C775.395 215.973 775.755 216.255 776.207 216.668C776.659 217.08 777.257 217.498 777.995 217.925C778.979 218.493 779.854 218.83 780.615 218.932C781.375 219.033 782.018 218.876 782.54 218.459C783.063 218.041 783.46 217.351 783.728 216.389C783.998 215.424 784.133 214.163 784.133 212.6V187.535L789.045 190.371V215.303ZM814.028 211.028C813.875 211.241 813.713 211.371 813.544 211.414C813.374 211.458 813.159 211.406 812.898 211.255C812.621 211.095 812.306 210.767 811.954 210.27C811.526 209.675 811.083 209.092 810.626 208.519C810.037 207.784 809.401 207.088 808.723 206.434C807.986 205.714 807.099 205.055 806.069 204.461C805.1 203.903 804.251 203.558 803.522 203.431C802.79 203.301 802.178 203.349 801.686 203.571C801.194 203.791 800.821 204.171 800.568 204.708C800.313 205.244 800.188 205.914 800.188 206.713C800.188 207.743 800.413 208.726 800.868 209.663C801.321 210.599 801.919 211.522 802.657 212.427C803.438 213.379 804.277 214.282 805.17 215.129C806.108 216.026 807.069 216.951 808.053 217.901C809.038 218.851 809.999 219.846 810.937 220.885C811.871 221.919 812.712 223.032 813.45 224.213C814.194 225.406 814.795 226.682 815.24 228.015C815.692 229.37 815.92 230.837 815.92 232.418C815.92 234.104 815.668 235.54 815.17 236.726C814.67 237.912 813.943 238.779 812.99 239.329C812.037 239.881 810.865 240.069 809.472 239.895C808.079 239.722 806.501 239.124 804.733 238.103C803.646 237.473 802.612 236.756 801.64 235.959C800.64 235.142 799.695 234.261 798.804 233.31C797.909 232.357 797.073 231.349 796.301 230.293C795.536 229.249 794.839 228.157 794.213 227.023L795.62 225.12C795.756 224.988 795.929 224.901 796.116 224.872C796.307 224.841 796.526 224.894 796.774 225.038C797.097 225.225 797.469 225.638 797.892 226.271C798.314 226.907 798.838 227.639 799.462 228.47C800.084 229.299 800.829 230.16 801.698 231.052C802.567 231.945 803.625 232.75 804.871 233.47C805.885 234.056 806.794 234.424 807.593 234.576C808.393 234.726 809.066 234.67 809.612 234.408C810.156 234.145 810.575 233.691 810.867 233.043C811.158 232.396 811.306 231.575 811.306 230.58C811.314 229.5 811.086 228.432 810.638 227.45C810.166 226.443 809.569 225.498 808.861 224.64C808.084 223.693 807.244 222.799 806.348 221.963C805.384 221.06 804.422 220.154 803.462 219.245C802.468 218.302 801.506 217.325 800.58 216.315C799.637 215.289 798.795 214.174 798.065 212.987C797.328 211.787 796.735 210.477 796.289 209.057C795.843 207.636 795.619 206.073 795.619 204.37C795.619 203.002 795.851 201.813 796.311 200.8C796.774 199.788 797.445 199.042 798.331 198.568C799.213 198.094 800.301 197.932 801.595 198.084C802.885 198.235 804.365 198.789 806.025 199.748C807.908 200.84 809.634 202.181 811.156 203.736C812.723 205.33 814.09 207.108 815.228 209.031L814.028 211.028ZM814.028 211.028C813.875 211.241 813.713 211.371 813.544 211.414C813.374 211.458 813.159 211.406 812.898 211.255C812.621 211.095 812.306 210.767 811.954 210.27C811.526 209.675 811.083 209.092 810.626 208.519C810.037 207.784 809.401 207.088 808.723 206.434C807.986 205.714 807.099 205.055 806.069 204.461C805.1 203.903 804.251 203.558 803.522 203.431C802.79 203.301 802.178 203.349 801.686 203.571C801.194 203.791 800.821 204.171 800.568 204.708C800.313 205.244 800.188 205.914 800.188 206.713C800.188 207.743 800.413 208.726 800.868 209.663C801.321 210.599 801.919 211.522 802.657 212.427C803.438 213.379 804.277 214.282 805.17 215.129C806.108 216.026 807.069 216.951 808.053 217.901C809.038 218.851 809.999 219.846 810.937 220.885C811.871 221.919 812.712 223.032 813.45 224.213C814.194 225.406 814.795 226.682 815.24 228.015C815.692 229.37 815.92 230.837 815.92 232.418C815.92 234.104 815.668 235.54 815.17 236.726C814.67 237.912 813.943 238.779 812.99 239.329C812.037 239.881 810.865 240.069 809.472 239.895C808.079 239.722 806.501 239.124 804.733 238.103C803.646 237.473 802.612 236.756 801.64 235.959C800.64 235.142 799.695 234.261 798.804 233.31C797.909 232.357 797.073 231.349 796.301 230.293C795.536 229.249 794.839 228.157 794.213 227.023L795.62 225.12C795.756 224.988 795.929 224.901 796.116 224.872C796.307 224.841 796.526 224.894 796.774 225.038C797.097 225.225 797.469 225.638 797.892 226.271C798.314 226.907 798.838 227.639 799.462 228.47C800.084 229.299 800.829 230.16 801.698 231.052C802.567 231.945 803.625 232.75 804.871 233.47C805.885 234.056 806.794 234.424 807.593 234.576C808.393 234.726 809.066 234.67 809.612 234.408C810.156 234.145 810.575 233.691 810.867 233.043C811.158 232.396 811.306 231.575 811.306 230.58C811.314 229.5 811.086 228.432 810.638 227.45C810.166 226.443 809.569 225.498 808.861 224.64C808.084 223.693 807.244 222.799 806.348 221.963C805.384 221.06 804.422 220.154 803.462 219.245C802.468 218.302 801.506 217.325 800.58 216.315C799.637 215.289 798.795 214.174 798.065 212.987C797.328 211.787 796.735 210.477 796.289 209.057C795.843 207.636 795.619 206.073 795.619 204.37C795.619 203.002 795.851 201.813 796.311 200.8C796.774 199.788 797.445 199.042 798.331 198.568C799.213 198.094 800.301 197.932 801.595 198.084C802.885 198.235 804.365 198.789 806.025 199.748C807.908 200.84 809.634 202.181 811.156 203.736C812.723 205.33 814.09 207.108 815.228 209.031L814.028 211.028Z" fill="white"/>
<path d="M158.05 857.025C158.05 861.742 154.74 867.478 150.655 869.837C146.57 872.197 143.257 870.284 143.257 865.567C143.257 860.849 146.57 855.114 150.655 852.754C154.741 850.394 158.05 852.308 158.05 857.025Z" fill="#020618"/>
<path d="M151.976 853.244C153.421 857.734 152.024 864.209 148.857 867.705C145.691 871.201 141.952 870.395 140.507 865.905C139.062 861.415 140.459 854.938 143.627 851.443C146.793 847.947 150.532 848.754 151.977 853.244H151.976ZM287.346 725.157C287.346 725.157 288.113 750.057 291.561 758.867C295.009 767.677 303.435 766.914 309.948 766.147C316.46 765.381 332.932 753.554 340.978 745.867C349.022 738.18 365.878 739.653 379.287 720.721C392.695 701.788 379.287 693.743 375.072 693.361C370.859 692.977 348.722 710.681 331.272 703.693L287.346 725.157Z" fill="#020618"/>
<path d="M120.696 599.626C120.696 599.626 263.21 552.717 290.288 572.086C315.623 590.21 311.508 644.707 331.272 703.693C331.787 705.214 331.717 706.872 331.074 708.343C328.031 715.253 316.874 734.055 286.985 729.165C286.985 729.165 270.415 686.016 259.155 640.975C259.155 640.975 148.14 712.512 122.836 693.965C97.532 675.42 120.696 599.626 120.696 599.626Z" fill="#2E4586"/>
<path d="M62.51 803.434L156.18 786.934L147.664 856.656L156.179 858.785L172.679 786.935L259.962 822.861L264.752 817.717L181.726 778.421L244.529 749.679L237.609 746.487L168.011 770.244L131.165 746.487L121.752 748.615L155.115 776.291L64.638 796.517L62.51 803.434Z" fill="#020618"/>
<path d="M74.3731 793.862C74.3731 798.579 71.0611 804.315 66.9751 806.674C62.8901 809.034 59.5781 807.121 59.5781 802.404C59.5781 797.686 62.8901 791.953 66.9751 789.594C71.0611 787.234 74.3731 789.144 74.3731 793.862Z" fill="#020618"/>
<path d="M77.7071 795.787C77.7071 800.504 74.3951 806.24 70.3091 808.6C66.2241 810.96 62.9141 809.046 62.9141 804.329C62.9141 799.612 66.2241 793.878 70.3091 791.519C74.3951 789.159 77.7071 791.07 77.7071 795.787ZM268.007 815.314C268.007 820.031 264.697 825.764 260.611 828.124C256.526 830.484 253.214 828.57 253.214 823.854C253.214 819.136 256.526 813.402 260.611 811.043C264.697 808.683 268.007 810.596 268.007 815.313V815.314Z" fill="#020618"/>
<path d="M263.886 812.593C263.886 817.31 260.576 823.046 256.49 825.406C252.405 827.766 249.092 825.852 249.092 821.135C249.092 816.418 252.405 810.685 256.49 808.325C260.575 805.965 263.886 807.876 263.886 812.593ZM175.092 738.547H158.282V779.667H175.092V738.547ZM356.699 746.467C356.699 746.467 357.464 771.368 360.912 780.179C364.36 788.989 372.788 788.222 379.301 787.457C385.813 786.69 402.285 774.866 410.33 767.179C418.375 759.492 435.23 760.965 448.638 742.033C462.046 723.1 448.638 715.055 444.425 714.673C440.212 714.29 419.18 730.179 401.731 723.192L356.699 746.467Z" fill="#020618"/>
<path d="M190.41 616.928C190.41 616.928 332.921 570.02 360 589.388C385.648 607.735 381.114 663.367 401.73 723.192C401.73 723.192 393.131 752.428 356.699 746.467C356.699 746.467 340.129 703.319 328.869 658.277C328.869 658.277 217.854 729.814 192.549 711.268C167.246 692.722 190.409 616.928 190.409 616.928H190.41Z" fill="#4661AD"/>
<path d="M306.966 677.841C301.948 704.983 255.706 738.141 175.283 750.2C172.477 750.632 145.747 755.89 122.206 751.278C136.992 722.923 176.013 675.872 163.79 629.522C192.604 634 311.365 653.991 306.966 677.841Z" fill="#314158"/>
<path d="M163.63 635.602L180.72 653.177C184.746 677.423 199.387 701.073 221.742 702.857L336.224 663.732V623.929L163.63 635.602Z" fill="#4661AD"/>
<path d="M202.28 457.817L142.919 427.754C136.81 424.661 130.06 422.971 123.213 423.059C110.68 423.22 92.4781 427.406 85.3521 448.789C74.0141 482.802 110.727 621.014 110.727 621.014C110.727 621.014 147.606 666.634 176.76 664.473C205.914 662.313 247.859 637.75 247.859 617.235C247.859 602.599 236.515 533.715 230.012 495.433C228.653 487.431 225.436 479.86 220.619 473.327C215.803 466.794 209.521 461.482 202.279 457.817H202.28Z" fill="#020618"/>
<path d="M225.606 366.716C225.928 366.694 233.308 367.92 237.211 368.574C237.501 368.623 237.778 368.735 238.02 368.902C238.262 369.07 238.464 369.289 238.611 369.544C238.759 369.799 238.848 370.083 238.873 370.376C238.898 370.67 238.858 370.965 238.756 371.241L236.679 376.936C236.331 377.889 235.715 378.721 234.905 379.331C234.095 379.941 233.125 380.303 232.113 380.374L223.515 380.974" stroke="#162456" stroke-width="1.49468" stroke-miterlimit="10"/>
<path d="M152.158 424.274L155.486 384.186L229.254 334.266L231.356 364.313C231.476 366.03 231.277 367.754 230.768 369.398L229.555 373.331C228.889 375.486 228.821 377.782 229.356 379.973L230.162 383.273C230.784 385.821 230.665 388.493 229.818 390.976L224.047 407.898C223.151 410.524 221.425 412.788 219.129 414.347C216.833 415.905 214.092 416.675 211.32 416.538L200.327 416.001L197.457 440.728L152.157 424.274H152.158Z" fill="#90A1B9"/>
<path d="M155.141 405.806L168.826 407.6C172.263 408.051 175.758 407.697 179.035 406.567C182.312 405.436 185.282 403.561 187.711 401.087L204.825 383.658L205.135 388.072L208.022 387.31C209.293 386.975 210.448 386.299 211.362 385.354C212.276 384.409 212.914 383.232 213.207 381.951L218.627 358.209C218.627 358.209 238.166 355.172 242.297 330.679C242.297 330.679 219.21 310.871 188.355 315.254C157.501 319.637 147.951 346.18 147.951 346.18C147.951 346.18 141.247 345.813 138.782 354.332C136.791 361.216 145.882 390.212 149.446 401.092C149.854 402.335 150.605 403.438 151.612 404.272C152.62 405.106 153.844 405.638 155.141 405.806Z" fill="#162456"/>
<path d="M204.525 393.738L206.085 380.911C206.085 380.911 203.102 374.921 197.317 377.782C191.531 380.644 195.17 395.994 198.603 396.182C202.036 396.369 204.525 393.738 204.525 393.738Z" fill="#90A1B9"/>
<path d="M206.086 380.911L237.954 376.771L239.617 371.554L203.529 378.035L206.086 380.911Z" fill="white"/>
<path d="M185.95 684.655C190.362 729.984 144.431 764.391 102.584 746.419C63.5751 729.665 34.9771 692.469 26.4951 628.209C17.0251 556.661 29.8141 511.39 39.2021 489.375C43.7881 478.691 55.0381 472.459 66.5311 474.051C156.371 486.569 178.817 634.171 178.817 634.171C178.817 634.171 183.324 657.659 185.95 684.655Z" fill="#314158"/>
<path d="M359.05 509.047C359.05 509.047 367.6 486.587 370.83 484.323C378.958 478.623 377.716 484.826 384.467 482.619C389.434 480.996 392.336 474.672 396.217 473.189C397.68 472.63 407.214 472.038 407.369 475.023C407.515 477.911 395.376 479.047 405.616 480.563C415.106 480.143 413.539 485.928 413.539 485.928C422.66 484.04 429.479 489.511 426.142 492.369C420.797 488.391 411.227 498.569 407.712 504.116C404.205 509.649 394.126 515.158 391.63 515.411C389.134 515.664 372.003 520.761 372.003 520.761L359.05 509.047Z" fill="#90A1B9"/>
<path d="M212.322 464.163C212.322 464.163 185.76 456.401 172.819 477.448C158.47 500.783 176.909 519.856 176.909 519.856L273.138 574.721C278.554 577.809 284.719 579.34 290.951 579.144C297.183 578.949 303.239 577.034 308.451 573.613L381.941 519.898C381.941 519.898 378.447 501.55 364.271 497.33C361.327 496.454 298.207 519.099 298.207 519.099C296.127 520.01 293.843 520.358 291.586 520.109C289.328 519.859 287.176 519.022 285.344 517.679L212.322 464.163Z" fill="#020618"/>
<path d="M250.549 478.016C250.549 478.016 260.38 456.198 263.619 453.949C266.859 451.699 294.377 449.539 296.863 448.999C299.349 448.461 304.621 453.649 304.621 453.649C304.621 453.649 313.341 453.559 315.031 453.897C316.722 454.235 325.878 458.547 323.129 461.115C321.409 462.724 316.809 460.302 311.049 460.749C305.449 461.184 296.691 464.565 294.676 467.226C286.601 477.896 312.281 468.65 312.506 472.279C312.977 479.882 285.252 485.969 282.746 486.09C280.239 486.211 262.863 490.396 262.863 490.396L250.549 478.016Z" fill="#90A1B9"/>
<path d="M182.257 485.52L253.13 469.115C267.664 469.115 269.803 489.879 269.803 489.879L220.931 524.518L182.257 485.52ZM247.859 743C247.859 747.716 244.549 753.45 240.463 755.81C236.378 758.17 233.066 756.258 233.066 751.54C233.066 746.824 236.378 741.088 240.463 738.728C244.549 736.368 247.859 738.283 247.859 743Z" fill="#020618"/>
<path d="M244.459 741.036C244.459 745.753 241.147 751.487 237.061 753.846C232.976 756.206 229.666 754.293 229.666 749.576C229.666 744.859 232.976 739.125 237.061 736.766C241.147 734.406 244.459 736.319 244.459 741.036Z" fill="#020618"/>
<path d="M306.966 677.841C219.47 727.546 193.355 691.321 186.244 673.913C184.353 669.286 183.807 665.986 183.807 665.986C183.807 665.986 166.047 573.9 142.265 531.421C122.206 495.591 95.4551 471.76 53.7661 470.5" stroke="white" stroke-width="7.9716" stroke-miterlimit="10" stroke-linecap="round"/>
<path d="M153.577 416.36L142.919 427.754L202.279 457.817L198.134 435.931L153.577 416.361V416.36Z" fill="#4661AD"/>
</g>
</g>
<defs>
<clipPath id="clip0_66_2">
<rect width="900" height="900" fill="white"/>
</clipPath>
</defs>
</svg>
