<svg width="64" height="65" viewBox="0 0 64 65" fill="none" xmlns="http://www.w3.org/2000/svg">
<path d="M11.7369 19.2097V13.9297C14.7591 13.9653 20.1551 13.9297 20.5903 13.9297C21.2836 13.9297 21.7103 13.7697 22.1903 14.143C31.968 24.4364 51.5693 45.0764 51.8436 45.3964C52.2093 45.823 52.3236 45.983 52.3236 46.3564V51.6364H42.6169C42.1903 51.6364 41.8347 51.4586 41.7103 51.3697C31.9503 41.0586 12.3556 20.3724 12.0569 20.1164C11.7583 19.8604 11.7191 19.4053 11.7369 19.2097Z" fill="white"/>
<path d="M11.7333 51.6023V25.8423C13.409 27.4439 15.9088 30.1964 18.3467 32.7223C20.5902 35.0469 22.8058 37.1607 23.7333 38.429C26.3467 42.0023 25.6533 46.0556 23.7333 48.5623C22.0953 50.7008 19.2355 51.5667 17.8133 51.6023H11.7333Z" fill="white"/>
<path d="M52.3232 13.8956L52.3232 39.6556C50.6475 38.054 48.1477 35.3015 45.7098 32.7756C43.4663 30.451 41.2507 28.3372 40.3232 27.0689C37.7098 23.4956 38.4032 19.4423 40.3232 16.9356C41.9612 14.7971 44.8209 13.9312 46.2432 13.8956H52.3232Z" fill="white"/>
</svg>
