<svg width="64" height="64" viewBox="0 0 64 64" fill="none" xmlns="http://www.w3.org/2000/svg">
<path d="M9.004 16.8914V11.0378C12.3546 11.0772 18.3368 11.0378 18.8192 11.0378C19.5878 11.0378 20.0608 10.8604 20.593 11.2743C31.433 22.6859 53.1638 45.5682 53.4679 45.923C53.8733 46.396 54 46.5734 54 46.9873V52.8409H43.2388C42.7658 52.8409 42.3716 52.6438 42.2336 52.5453C31.4133 41.114 9.68988 18.1804 9.35876 17.8966C9.02765 17.6128 8.98429 17.1082 9.004 16.8914Z" fill="white"/>
<path d="M9 52.8031V24.2445C10.8577 26.0201 13.6291 29.0716 16.3318 31.872C18.8191 34.4491 21.2753 36.7925 22.3037 38.1986C25.2009 42.1601 24.4323 46.6538 22.3037 49.4328C20.4877 51.8036 17.3173 52.7637 15.7405 52.8031H9Z" fill="white"/>
<path d="M53.9995 11L53.9995 39.5586C52.1418 37.783 49.3704 34.7315 46.6677 31.9311C44.1804 29.354 41.7242 27.0106 40.6958 25.6045C37.7986 21.643 38.5672 17.1493 40.6958 14.3703C42.5118 11.9995 45.6822 11.0394 47.259 11L53.9995 11Z" fill="white"/>
</svg>
